<svg xmlns="http://www.w3.org/2000/svg" width="682.667" height="682.667" preserveAspectRatio="xMidYMid meet" version="1.0" viewBox="0 0 512 512"><metadata>Created by potrace 1.11, written by Peter Selinger 2001-2013</metadata><g fill="#000" stroke="none"><path d="M2670 3579 c0 -131 4 -209 10 -207 5 2 83 54 172 116 l163 113 0 72 c0 40 4 82 8 95 l8 22 -180 0 -181 0 0 -211z" transform="translate(0.000000,512.000000) scale(0.100000,-0.100000)"/><path d="M3575 3773 c16 -42 17 -121 1 -175 -46 -160 -219 -248 -377 -192 l-45 17 -240 -166 -239 -165 -3 -407 c-1 -224 1 -405 6 -403 4 1 83 55 175 118 l168 115 -6 46 c-22 160 121 319 286 319 94 0 207 -69 250 -151 33 -66 41 -134 24 -203 -24 -92 -71 -148 -160 -192 -60 -29 -148 -32 -216 -8 l-46 17 -241 -167 -242 -168 0 -409 0 -409 78 54 c42 30 120 83 172 119 l95 65 0 74 c1 60 6 86 28 131 48 98 141 158 246 160 170 3 297 -125 294 -296 -3 -184 -194 -318 -368 -258 l-60 20 -95 -65 c-52 -36 -161 -111 -242 -167 l-148 -101 0 -128 0 -128 -125 0 -125 0 -2 406 -3 407 -150 104 c-82 57 -193 133 -245 169 l-96 65 -36 -16 c-22 -9 -67 -15 -111 -15 -59 0 -83 5 -125 26 -97 48 -152 141 -152 255 0 110 57 206 152 253 74 37 182 37 256 0 101 -50 154 -140 154 -260 l-1 -74 175 -120 c96 -66 177 -120 179 -120 3 0 5 183 5 408 l-1 407 -67 45 c-37 25 -148 101 -246 169 l-179 124 -46 -17 c-69 -24 -156 -21 -216 9 -85 41 -132 96 -161 188 l-18 57 -81 0 c-77 0 -213 20 -385 56 -137 29 -374 85 -445 105 -38 11 -78 23 -87 25 -17 5 -18 -16 -18 -335 l0 -341 -80 0 -80 0 -2 367 -3 366 -53 18 -52 18 2 -1222 c3 -1361 -2 -1256 73 -1414 116 -248 325 -411 597 -467 69 -14 254 -16 1668 -16 1750 0 1654 -3 1821 61 231 89 414 290 491 541 l23 73 3 1408 2 1407 -60 0 -60 0 0 -210 0 -209 -71 -21 c-39 -12 -73 -19 -76 -17 -2 3 -7 107 -10 231 l-6 226 -515 0 c-486 0 -514 -1 -507 -17z" transform="translate(0.000000,512.000000) scale(0.100000,-0.100000)"/><path d="M2067 3113 c-7 -35 -6 -36 189 -171 l159 -110 3 52 c2 28 1 97 -3 154 l-7 102 -168 0 -168 0 -5 -27z" transform="translate(0.000000,512.000000) scale(0.100000,-0.100000)"/></g></svg>